<svg width="75" height="56" viewBox="0 0 75 56" fill="none" xmlns="http://www.w3.org/2000/svg">
<g filter="url(#filter0_d)">
<path fill-rule="evenodd" clip-rule="evenodd" d="M53.0382 22C59.6503 22 65 27.4 65 34C65 40.6 59.5902 46 52.9781 46C46.3661 46 40.0546 40.6 40.0546 34C40.0546 20.74 51.7158 10 65 10C65 10 57.1257 12.94 53.0382 22ZM34.9454 34C34.9454 40.6 29.5355 46 22.9235 46C16.3115 46 10 40.6 10 34C10 20.74 21.6612 10 34.9454 10C34.9454 10 27.071 12.94 22.9836 22C29.5956 22 34.9454 27.4 34.9454 34Z" fill="#FCD333"/>
</g>
<defs>
<filter id="filter0_d" x="0" y="0" width="75" height="56" filterUnits="userSpaceOnUse" color-interpolation-filters="sRGB">
<feFlood flood-opacity="0" result="BackgroundImageFix"/>
<feColorMatrix in="SourceAlpha" type="matrix" values="0 0 0 0 0 0 0 0 0 0 0 0 0 0 0 0 0 0 127 0"/>
<feOffset/>
<feGaussianBlur stdDeviation="5"/>
<feColorMatrix type="matrix" values="0 0 0 0 0 0 0 0 0 0 0 0 0 0 0 0 0 0 0.05 0"/>
<feBlend mode="normal" in2="BackgroundImageFix" result="effect1_dropShadow"/>
<feBlend mode="normal" in="SourceGraphic" in2="effect1_dropShadow" result="shape"/>
</filter>
</defs>
</svg>
