<svg width="1785" height="384" viewBox="0 0 1785 384" fill="none" xmlns="http://www.w3.org/2000/svg">
<path d="M671.459 205.739C671.459 199.239 667.819 201.319 666.779 204.699C650.139 265.539 626.999 254.099 626.999 189.879C626.999 162.059 631.679 129.559 638.699 102.519C629.859 100.179 617.899 100.179 611.399 107.459C607.759 99.9193 599.959 95.7593 591.119 95.7593C545.099 95.7593 533.659 157.899 533.919 195.339C534.179 211.719 536.259 256.179 559.659 256.179C577.599 255.919 592.939 222.379 601.779 190.399C601.779 213.019 607.499 256.439 636.359 256.439C657.679 256.699 671.459 223.679 671.459 205.739ZM609.319 110.579C603.339 132.159 603.339 155.039 597.619 176.619C591.899 198.459 582.799 227.059 571.879 227.059C560.179 227.059 560.179 201.059 560.179 191.959C560.179 171.939 563.299 147.759 571.099 131.119C576.559 119.679 595.799 95.7592 609.319 110.579Z" fill="#FAD332"/>
<path d="M354.78 205.739C354.78 199.239 351.14 201.319 350.1 204.699C333.72 265.539 310.06 254.099 310.06 189.879C310.06 162.059 314.74 129.559 321.76 102.519C312.92 100.179 300.96 100.179 294.46 107.459C290.82 99.9193 283.28 95.7593 274.44 95.7593C228.42 95.7593 216.98 157.899 217.24 195.339C217.5 211.719 219.58 256.179 242.98 256.179C260.92 255.919 276.26 222.379 285.1 190.399C285.1 213.019 290.82 256.439 319.68 256.439C341.26 256.699 354.78 223.679 354.78 205.739ZM292.64 110.579C286.66 132.159 286.4 155.039 280.94 176.619C275.22 198.459 266.12 227.059 255.2 227.059C243.5 227.059 243.5 201.059 243.5 191.959C243.5 171.939 246.62 147.759 254.42 131.119C259.88 119.679 279.12 95.7592 292.64 110.579Z" fill="#FAD332"/>
<path d="M914.559 208.86C914.559 202.62 909.879 205.74 908.839 209.64C906.239 219.78 897.919 243.7 885.439 243.7C863.599 243.7 876.079 148.8 876.859 137.36C877.899 123.32 882.059 98.6196 860.999 98.6196C847.219 98.6196 840.459 112.14 833.439 122.54C826.419 132.94 819.919 143.08 814.979 158.16C815.759 149.58 816.019 136.58 816.019 128C816.019 115.52 814.979 106.16 806.919 106.16C798.859 106.16 793.399 112.92 787.159 114.74C790.019 125.4 791.059 144.12 791.059 163.88C791.059 192.22 789.239 222.9 787.419 235.38C784.819 254.88 794.699 264.76 812.119 252.8C810.819 244.74 810.039 236.42 810.039 228.36C810.039 188.84 825.379 148.8 837.339 132.94C848.259 118.38 854.239 124.88 854.239 141C854.239 161.54 835.779 257.22 875.559 257.22C895.319 257.22 905.719 241.88 911.179 224.72C912.999 219.26 914.559 214.32 914.559 208.86Z" fill="#FAD332"/>
<path d="M792.619 208.859C792.619 202.619 787.939 205.739 786.899 209.639C784.299 219.779 775.978 243.699 763.498 243.699C740.358 243.699 755.959 139.439 755.959 120.979C755.959 109.799 753.099 98.3594 739.058 98.3594C725.278 98.3594 718.518 111.879 711.498 122.279C704.478 132.679 697.978 142.819 693.038 157.899C693.818 149.319 694.078 136.319 694.078 127.739C694.078 115.259 693.038 105.899 684.978 105.899C676.918 105.899 671.458 112.659 665.218 114.479C668.078 125.139 669.118 143.859 669.118 163.619C669.118 191.959 667.298 222.639 665.478 235.119C662.878 254.619 672.758 264.499 690.178 252.539C688.618 244.479 688.098 236.159 688.098 228.099C688.098 188.579 703.438 148.539 715.398 132.679C726.318 118.119 732.298 124.619 732.298 140.739C732.298 161.279 713.839 256.959 753.619 256.959C773.379 256.959 783.518 241.619 789.238 224.459C791.058 219.259 792.619 214.319 792.619 208.859Z" fill="#FAD332"/>
<path d="M539.898 209.64C539.898 203.14 535.738 204.96 534.178 209.64C531.578 219.26 524.298 243.7 511.298 243.7C496.738 243.7 499.338 200.8 499.598 189.62C500.118 166.74 502.458 144.12 502.718 137.36C503.498 124.1 507.398 98.6196 487.898 98.6196C466.838 98.6196 444.998 140.74 439.278 158.42L435.638 169.08L437.718 137.62C438.498 124.62 444.998 98.8796 425.498 98.8796C404.438 98.8796 382.338 141 376.618 158.68C377.398 150.1 377.658 137.1 377.658 128.52C377.658 116.04 376.618 106.68 368.558 106.68C360.498 106.68 355.038 113.7 348.798 115.26C351.918 125.92 352.958 145.16 352.958 165.7C352.958 193.52 350.878 223.68 349.578 235.64C348.538 243.96 346.198 258.26 358.418 258.26C363.098 258.26 368.818 256.18 374.018 253.32C372.718 245.26 371.938 237.2 371.938 228.88C371.938 188.84 387.278 149.06 399.238 132.94C413.538 113.44 415.098 140.74 415.098 151.4C415.098 178.44 407.558 212.5 416.398 238.24C420.038 248.38 426.278 250.98 431.478 250.98C435.118 250.98 437.718 249.94 439.018 249.16C431.998 214.58 440.578 160.24 461.638 132.94C479.058 110.58 476.718 142.56 476.458 154.52C476.198 173.5 474.638 192.48 474.638 211.46C474.638 230.44 478.278 257.48 502.198 257.48C521.958 257.48 531.058 242.14 536.778 224.98C538.338 219.78 539.898 214.58 539.898 209.64Z" fill="#FAD332"/>
<path d="M205.279 199.76C226.859 110.84 60.1992 137.88 60.1992 82.2396C60.1992 46.6196 94.5192 26.5997 131.959 21.6597C153.539 18.7997 174.599 29.1996 179.799 47.1396C182.139 33.8796 174.599 16.4597 150.419 11.2597C116.619 3.97966 75.0192 20.6196 50.8392 49.4796C33.9392 69.4996 25.3592 99.6596 47.9792 118.38C74.7592 140.74 123.379 144.12 156.919 161.02C171.479 168.3 177.459 178.7 177.459 190.14C177.459 221.6 130.139 260.08 78.3992 260.08C62.2792 260.08 38.3592 258.52 26.3992 247.08C25.6192 245.52 23.0192 243.44 21.7192 240.58C10.5392 217.7 26.9192 200.54 41.7392 184.42C17.0392 196.64 0.65918 214.84 0.65918 231.22C0.65918 288.16 185.259 282.7 205.279 199.76Z" fill="#FAD332"/>
<path d="M1725.24 212.239C1725.24 211.719 1724.98 211.199 1724.98 210.419L1722.12 211.459C1710.42 180.259 1671.16 183.379 1653.22 206.779C1664.14 176.359 1683.9 146.199 1701.84 119.939C1711.2 116.559 1727.32 106.159 1727.32 94.9794C1727.32 79.3794 1701.06 81.4594 1698.98 108.759C1682.08 117.079 1639.96 63.5194 1627.48 113.959C1622.02 136.579 1623.32 160.499 1618.38 183.899C1615.26 197.939 1612.14 212.499 1607.46 224.199C1604.6 230.959 1611.1 234.599 1613.7 226.539C1623.84 197.679 1627.22 168.299 1633.46 138.919C1638.92 112.399 1656.34 125.399 1673.76 125.399C1681.56 125.399 1690.14 123.319 1695.08 115.519C1685.2 131.639 1631.38 211.719 1631.38 235.639C1631.38 251.759 1652.96 245.259 1652.96 221.079C1652.96 211.459 1686.76 194.819 1696.64 224.979C1664.14 245.519 1635.28 278.799 1620.98 302.979C1605.38 329.759 1596.28 383.839 1641.78 383.839C1698.98 383.839 1736.68 267.619 1723.68 219.259L1726.54 217.959C1726.28 216.919 1725.24 213.799 1725.24 212.239ZM1699.5 235.379C1700.54 241.619 1701.32 248.899 1701.32 256.179C1701.32 307.139 1676.88 376.559 1641 376.559C1631.12 376.559 1625.14 366.679 1625.14 351.079C1624.88 306.619 1665.44 260.079 1699.5 235.379Z" fill="#FAD332"/>
<path d="M1618.38 205.739C1618.38 199.239 1614.74 201.319 1613.7 204.699C1597.06 265.539 1573.66 254.099 1573.66 189.879C1573.66 162.059 1578.34 129.559 1585.36 102.519C1576.52 100.179 1564.56 100.179 1558.06 107.459C1554.42 99.9193 1546.62 95.7593 1537.78 95.7593C1491.76 95.7593 1480.32 157.899 1480.58 195.339C1480.58 211.719 1482.92 256.179 1506.32 256.179C1524.26 255.919 1539.6 222.379 1548.44 190.399C1548.44 213.019 1554.16 256.439 1583.02 256.439C1604.86 256.699 1618.38 223.679 1618.38 205.739ZM1556.24 110.579C1550.26 132.159 1550.26 155.039 1544.54 176.619C1538.82 198.459 1529.72 227.059 1518.8 227.059C1507.1 227.059 1507.1 201.059 1507.1 191.959C1507.1 171.939 1510.22 147.759 1518.02 131.119C1523.48 119.679 1542.98 95.7592 1556.24 110.579Z" fill="#FAD332"/>
<path d="M1472.26 59.0999C1472.26 36.7399 1438.2 36.9999 1438.2 59.0999C1438.2 81.2 1472.26 81.72 1472.26 59.0999Z" fill="#FAD332"/>
<path d="M1487.6 205.74C1487.6 199.24 1483.96 201.32 1482.92 204.7C1480.58 214.32 1471.22 244.48 1459.26 244.74C1445.74 245 1444.7 210.16 1444.7 185.46C1444.7 150.1 1453.54 119.42 1458.22 102.78C1446.78 100.18 1435.08 101.74 1429.36 113.44C1424.68 122.54 1419.48 152.96 1419.48 183.38C1419.48 220.04 1427.28 256.96 1452.76 256.96C1474.08 256.7 1487.6 223.68 1487.6 205.74Z" fill="#FAD332"/>
<path d="M1426.24 205.74C1426.24 200.28 1423.12 200.02 1421.56 204.7C1418.44 214.32 1410.12 244.48 1397.9 244.74C1383.6 245 1385.16 201.06 1385.16 189.88C1385.42 167 1386.98 137.88 1389.32 111.88H1417.66C1422.6 111.88 1423.64 102.78 1418.7 102.78H1390.36C1392.96 75.9996 1396.08 53.3796 1398.42 45.0596C1388.54 42.9796 1374.5 42.1996 1369.82 53.6396C1366.7 61.4396 1364.1 80.9396 1362.28 102.78C1356.82 102.78 1347.72 100.7 1347.72 108.5C1347.72 110.32 1348.5 112.14 1350.58 112.14H1361.5C1358.9 144.64 1357.6 179.22 1357.6 187.54C1357.34 209.9 1359.94 257.22 1390.88 257.22C1412.72 256.7 1426.24 223.42 1426.24 205.74Z" fill="#FAD332"/>
<path d="M1362.28 209.64C1362.28 203.14 1357.86 204.7 1356.56 209.64C1353.96 219.26 1346.68 243.7 1333.68 243.7C1313.66 243.7 1324.32 152.96 1325.1 137.36C1325.88 123.84 1330.04 98.6196 1310.28 98.6196C1289.22 98.6196 1267.38 140.74 1261.4 158.42L1257.76 169.08L1259.84 137.62C1260.62 124.62 1267.12 98.8796 1247.36 98.8796C1226.3 98.8796 1204.46 141 1198.48 158.68C1199.26 150.1 1199.52 137.1 1199.52 128.52C1199.52 116.04 1198.48 106.68 1190.42 106.68C1182.36 106.68 1176.9 113.7 1170.66 115.26C1173.78 125.92 1174.82 145.16 1174.82 165.7C1174.82 193.52 1172.74 223.68 1171.18 235.64C1170.14 243.96 1167.8 258.26 1180.02 258.26C1184.7 258.26 1190.16 256.18 1195.62 253.32C1194.32 245.26 1193.54 237.2 1193.54 228.88C1193.54 188.84 1209.14 149.06 1220.84 132.94C1235.14 113.44 1236.7 140.74 1236.7 151.4C1236.7 178.44 1229.16 212.5 1238 238.24C1241.64 248.38 1247.88 250.98 1253.34 250.98C1256.72 250.98 1259.58 249.94 1260.62 249.16C1253.6 214.58 1262.18 160.24 1283.24 132.94C1300.66 110.58 1298.32 143.08 1298.06 154.52C1297.8 173.5 1296.24 192.48 1296.24 211.46C1296.24 230.44 1299.88 257.48 1323.8 257.48C1343.56 257.48 1352.66 242.14 1358.38 224.98C1360.46 219.78 1362.28 214.58 1362.28 209.64Z" fill="#FAD332"/>
<path d="M1174.3 202.62C1185.22 187.54 1174.3 202.62 1174.3 202.62V202.62Z" fill="#FAD332"/>
<path d="M1145.7 119.94C1149.34 83.7996 1157.66 0.0795898 1105.14 0.0795898C1037.8 0.0795898 1056 134.24 1087.46 168.04C1091.36 172.2 1101.76 171.68 1095.26 165.18C1074.2 144.64 1060.16 11.7796 1103.06 11.7796C1134.52 11.7796 1119.18 129.82 1116.58 145.16C1114.24 159.2 1105.14 208.34 1096.82 219.52C1087.46 239.54 1074.72 250.98 1055.48 250.98C1018.3 250.98 1003.22 185.98 1002.96 156.08C992.299 161.02 993.079 175.58 993.079 185.46C993.079 218.74 1001.92 260.34 1051.32 260.08C1117.62 259.3 1139.98 173.5 1145.7 119.94Z" fill="#FAD332"/>
<path fill-rule="evenodd" clip-rule="evenodd" d="M1096.56 233.04C1104.88 229.92 1116.84 223.68 1125.94 219.78C1140.5 213.54 1162.34 201.58 1173 190.66C1173.78 189.88 1184.18 181.82 1184.18 183.12C1184.18 193.26 1183.4 191.18 1175.86 201.32C1161.56 220.04 1119.96 231.48 1096.3 235.38C1086.94 236.94 1095.52 234.08 1096.56 233.04Z" fill="#FAD332"/>
<path fill-rule="evenodd" clip-rule="evenodd" d="M1713.8 215.619C1715.1 215.359 1727.58 209.119 1731.22 208.079C1754.1 200.539 1767.62 200.28 1784.52 181.56C1779.84 191.18 1774.12 200.279 1758.52 207.039C1753.32 209.379 1721.34 219.519 1720.82 222.379C1719.52 222.379 1713.54 215.879 1713.8 215.619Z" fill="#FAD332"/>
</svg>
