<svg width="110" height="19" viewBox="0 0 110 19" fill="none" xmlns="http://www.w3.org/2000/svg">
<path d="M8.48326 15.0549C8.80106 14.8631 9.19894 14.8631 9.51674 15.0549L12.533 16.8754C13.2903 17.3325 14.2245 16.6535 14.0236 15.792L13.2231 12.3608C13.1388 11.9993 13.2616 11.6208 13.5422 11.3778L16.2086 9.06788C16.8772 8.48868 16.5198 7.39042 15.6384 7.31564L12.1299 7.01798C11.7603 6.98662 11.4384 6.75328 11.2937 6.41179L9.92072 3.17237C9.57613 2.35934 8.42387 2.35934 8.07928 3.17237L6.70632 6.41179C6.56158 6.75329 6.23971 6.98662 5.87013 7.01798L2.36163 7.31564C1.4802 7.39042 1.1228 8.48868 1.79139 9.06788L4.4578 11.3778C4.73836 11.6208 4.86121 11.9993 4.77687 12.3608L3.97641 15.792C3.77545 16.6535 4.70968 17.3325 5.467 16.8754L8.48326 15.0549Z" fill="#FCD333"/>
<path d="M31.443 15.6435C31.78 15.4176 32.22 15.4176 32.557 15.6435L35.5215 17.6316C36.2664 18.1311 37.2415 17.4733 37.0572 16.5956L36.1998 12.5119C36.129 12.1748 36.2367 11.8249 36.485 11.586L39.4297 8.7515C40.0459 8.15841 39.6815 7.11571 38.8301 7.03545L35.1479 6.68834C34.7689 6.65262 34.4431 6.40482 34.3074 6.04916L32.9343 2.44944C32.607 1.59131 31.393 1.5913 31.0657 2.44944L29.6926 6.04916C29.5569 6.40482 29.2311 6.65262 28.8521 6.68834L25.1699 7.03545C24.3185 7.11571 23.9541 8.15841 24.5703 8.7515L27.515 11.586C27.7633 11.8249 27.871 12.1748 27.8002 12.5119L26.9428 16.5956C26.7585 17.4733 27.7336 18.1311 28.4785 17.6316L31.443 15.6435Z" fill="#FCD333"/>
<path d="M54.443 15.6435C54.78 15.4176 55.22 15.4176 55.557 15.6435L58.5215 17.6316C59.2664 18.1311 60.2415 17.4733 60.0572 16.5956L59.1998 12.5119C59.129 12.1748 59.2367 11.8249 59.485 11.586L62.4297 8.7515C63.0459 8.15841 62.6815 7.11571 61.8301 7.03545L58.1479 6.68834C57.7689 6.65262 57.4431 6.40482 57.3074 6.04916L55.9343 2.44944C55.607 1.59131 54.393 1.5913 54.0657 2.44944L52.6926 6.04916C52.5569 6.40482 52.2311 6.65262 51.8521 6.68834L48.1699 7.03545C47.3185 7.11571 46.9541 8.15841 47.5703 8.7515L50.515 11.586C50.7633 11.8249 50.871 12.1748 50.8002 12.5119L49.9428 16.5956C49.7585 17.4733 50.7336 18.1311 51.4785 17.6316L54.443 15.6435Z" fill="#FCD333"/>
<path d="M77.443 15.6435C77.78 15.4176 78.22 15.4176 78.557 15.6435L81.5215 17.6316C82.2664 18.1311 83.2415 17.4733 83.0572 16.5956L82.1998 12.5119C82.129 12.1748 82.2367 11.8249 82.485 11.586L85.4297 8.7515C86.0459 8.15841 85.6815 7.11571 84.8301 7.03545L81.1479 6.68834C80.7689 6.65262 80.4431 6.40482 80.3074 6.04916L78.9343 2.44944C78.607 1.59131 77.393 1.5913 77.0657 2.44944L75.6926 6.04916C75.5569 6.40482 75.2311 6.65262 74.8521 6.68834L71.1699 7.03545C70.3185 7.11571 69.9541 8.15841 70.5703 8.7515L73.515 11.586C73.7633 11.8249 73.871 12.1748 73.8002 12.5119L72.9428 16.5956C72.7585 17.4733 73.7336 18.1311 74.4785 17.6316L77.443 15.6435Z" fill="#FCD333"/>
<path d="M100.443 15.6435C100.78 15.4176 101.22 15.4176 101.557 15.6435L104.522 17.6316C105.266 18.1311 106.241 17.4733 106.057 16.5956L105.2 12.5119C105.129 12.1748 105.237 11.8249 105.485 11.586L108.43 8.7515C109.046 8.15841 108.682 7.11571 107.83 7.03545L104.148 6.68834C103.769 6.65262 103.443 6.40482 103.307 6.04916L101.934 2.44944C101.607 1.59131 100.393 1.5913 100.066 2.44944L98.6926 6.04916C98.5569 6.40482 98.2311 6.65262 97.8521 6.68834L94.1699 7.03545C93.3185 7.11571 92.9541 8.15841 93.5703 8.7515L96.515 11.586C96.7633 11.8249 96.871 12.1748 96.8002 12.5119L95.9428 16.5956C95.7585 17.4733 96.7336 18.1311 97.4785 17.6316L100.443 15.6435Z" fill="#FCD333"/>
</svg>
